<svg width="116" height="116" viewBox="0 0 116 116" fill="none" xmlns="http://www.w3.org/2000/svg">
<g clip-path="url(#clip0)">
<path d="M0 115.366H115.666V0H0V115.366Z" fill="#ED1D24"/>
<path d="M85.1543 15.7379H92.5596V52.1826H85.1543V15.7379Z" fill="white"/>
<path d="M38.8692 40.0736C38.8692 46.9107 33.655 52.184 26.8362 52.184C20.0309 52.184 14.6895 46.9107 14.6895 40.0736V15.7393H21.9129V40.0736C21.9129 42.8375 24.1086 45.065 26.8362 45.065C29.5774 45.065 31.7548 42.8375 31.7548 40.0736V15.7393H38.8692V40.0736Z" fill="white"/>
<path d="M73.0889 99.6547H48.75V63.2236H56.128V92.2448H73.0889V99.6547Z" fill="white"/>
<path d="M73.0889 52.1799H65.6927L56.128 31.3005V52.1799H48.75V15.7353H56.128L65.6927 36.5829V15.7353H73.0889V52.1799Z" fill="white"/>
<path d="M26.8297 63.2251C20.0335 63.2251 14.6875 68.6711 14.6875 75.2627V87.6185C14.6875 94.1238 20.0335 99.6561 26.8297 99.6561C27.6525 99.6561 28.4526 99.5698 29.2163 99.4289L31.7529 107.034H38.8673L35.4987 96.0876C37.4717 93.8328 38.8673 90.7643 38.8673 87.6185V75.2627C38.8673 68.6711 33.6531 63.2251 26.8297 63.2251ZM31.7529 87.6185C31.7529 90.0142 29.5754 92.2463 26.8297 92.2463C24.1067 92.2463 21.911 90.0142 21.911 87.6185V75.2627C21.911 72.5397 24.1067 70.3531 26.8297 70.3531C29.5754 70.3531 31.7529 72.5397 31.7529 75.2627V87.6185Z" fill="white"/>
<path d="M88.8449 63.2251C82.0305 63.2251 76.8027 68.6711 76.8027 75.2627V87.6185C76.8027 94.1237 82.0305 99.6561 88.8449 99.6561C95.6456 99.6561 100.882 94.1237 100.882 87.6185V75.2627C100.882 68.6711 95.6456 63.2251 88.8449 63.2251ZM93.7818 87.6185C93.7818 90.0142 91.5543 92.2463 88.8449 92.2463C86.1219 92.2463 83.908 90.0142 83.908 87.6185V75.2627C83.908 72.5397 86.1219 70.3531 88.8449 70.3531C91.5543 70.3531 93.7818 72.5397 93.7818 75.2627V87.6185Z" fill="white"/>
</g>
<defs>
<clipPath id="clip0">
<rect width="115.666" height="115.366" fill="white"/>
</clipPath>
</defs>
</svg>
