<svg width="324" height="89" viewBox="0 0 324 89" fill="none" xmlns="http://www.w3.org/2000/svg">
<path d="M7 72L317 72C320.866 72 324 68.866 324 65V33C324 29.134 320.866 26 317 26L7 26C3.134 26 0 29.134 0 33V65C0 68.866 3.134 72 7 72Z" fill="url(#paint0_linear)"/>
<path fill-rule="evenodd" clip-rule="evenodd" d="M0 55H174.869C177.703 55 180 52.7614 180 50C180 47.2386 177.703 45 174.869 45H0V55Z" fill="#333333"/>
<path d="M255.95 85.12C255.483 85.12 255.063 85.0133 254.69 84.8C254.317 84.5867 254.02 84.2867 253.8 83.9C253.587 83.5067 253.48 83.0467 253.48 82.52C253.48 81.9933 253.59 81.5367 253.81 81.15C254.03 80.7567 254.327 80.4533 254.7 80.24C255.08 80.0267 255.503 79.92 255.97 79.92C256.437 79.92 256.857 80.0267 257.23 80.24C257.603 80.4533 257.897 80.7567 258.11 81.15C258.33 81.5367 258.44 81.9933 258.44 82.52C258.44 83.0467 258.33 83.5067 258.11 83.9C257.89 84.2867 257.59 84.5867 257.21 84.8C256.837 85.0133 256.417 85.12 255.95 85.12ZM255.95 84.4C256.237 84.4 256.503 84.33 256.75 84.19C256.997 84.05 257.197 83.84 257.35 83.56C257.503 83.28 257.58 82.9333 257.58 82.52C257.58 82.1067 257.503 81.76 257.35 81.48C257.203 81.2 257.007 80.99 256.76 80.85C256.513 80.71 256.25 80.64 255.97 80.64C255.683 80.64 255.417 80.71 255.17 80.85C254.923 80.99 254.723 81.2 254.57 81.48C254.417 81.76 254.34 82.1067 254.34 82.52C254.34 82.9333 254.417 83.28 254.57 83.56C254.723 83.84 254.92 84.05 255.16 84.19C255.407 84.33 255.67 84.4 255.95 84.4ZM260.784 85L258.904 80.04H259.784L261.274 84.19L262.774 80.04H263.634L261.754 85H260.784ZM266.545 85.12C266.072 85.12 265.652 85.0133 265.285 84.8C264.918 84.58 264.628 84.2767 264.415 83.89C264.208 83.5033 264.105 83.0467 264.105 82.52C264.105 82 264.208 81.5467 264.415 81.16C264.622 80.7667 264.908 80.4633 265.275 80.25C265.648 80.03 266.078 79.92 266.565 79.92C267.045 79.92 267.458 80.03 267.805 80.25C268.158 80.4633 268.428 80.7467 268.615 81.1C268.802 81.4533 268.895 81.8333 268.895 82.24C268.895 82.3133 268.892 82.3867 268.885 82.46C268.885 82.5333 268.885 82.6167 268.885 82.71H264.935C264.955 83.09 265.042 83.4067 265.195 83.66C265.355 83.9067 265.552 84.0933 265.785 84.22C266.025 84.3467 266.278 84.41 266.545 84.41C266.892 84.41 267.182 84.33 267.415 84.17C267.648 84.01 267.818 83.7933 267.925 83.52H268.755C268.622 83.98 268.365 84.3633 267.985 84.67C267.612 84.97 267.132 85.12 266.545 85.12ZM266.545 80.63C266.145 80.63 265.788 80.7533 265.475 81C265.168 81.24 264.992 81.5933 264.945 82.06H268.065C268.045 81.6133 267.892 81.2633 267.605 81.01C267.318 80.7567 266.965 80.63 266.545 80.63ZM270.008 85V80.04H270.768L270.838 80.99C270.992 80.6633 271.225 80.4033 271.538 80.21C271.852 80.0167 272.238 79.92 272.698 79.92V80.8H272.468C272.175 80.8 271.905 80.8533 271.658 80.96C271.412 81.06 271.215 81.2333 271.068 81.48C270.922 81.7267 270.848 82.0667 270.848 82.5V85H270.008ZM273.641 87.2V80.04H274.401L274.481 80.86C274.641 80.62 274.868 80.4033 275.161 80.21C275.461 80.0167 275.841 79.92 276.301 79.92C276.795 79.92 277.225 80.0333 277.591 80.26C277.958 80.4867 278.241 80.7967 278.441 81.19C278.648 81.5833 278.751 82.03 278.751 82.53C278.751 83.03 278.648 83.4767 278.441 83.87C278.241 84.2567 277.955 84.5633 277.581 84.79C277.215 85.01 276.785 85.12 276.291 85.12C275.885 85.12 275.521 85.0367 275.201 84.87C274.888 84.7033 274.648 84.47 274.481 84.17V87.2H273.641ZM276.201 84.39C276.535 84.39 276.828 84.3133 277.081 84.16C277.335 84 277.535 83.78 277.681 83.5C277.828 83.22 277.901 82.8933 277.901 82.52C277.901 82.1467 277.828 81.82 277.681 81.54C277.535 81.26 277.335 81.0433 277.081 80.89C276.828 80.73 276.535 80.65 276.201 80.65C275.868 80.65 275.575 80.73 275.321 80.89C275.068 81.0433 274.868 81.26 274.721 81.54C274.575 81.82 274.501 82.1467 274.501 82.52C274.501 82.8933 274.575 83.22 274.721 83.5C274.868 83.78 275.068 84 275.321 84.16C275.575 84.3133 275.868 84.39 276.201 84.39ZM282.15 85.12C281.677 85.12 281.257 85.0133 280.89 84.8C280.524 84.58 280.234 84.2767 280.02 83.89C279.814 83.5033 279.71 83.0467 279.71 82.52C279.71 82 279.814 81.5467 280.02 81.16C280.227 80.7667 280.514 80.4633 280.88 80.25C281.254 80.03 281.684 79.92 282.17 79.92C282.65 79.92 283.064 80.03 283.41 80.25C283.764 80.4633 284.034 80.7467 284.22 81.1C284.407 81.4533 284.5 81.8333 284.5 82.24C284.5 82.3133 284.497 82.3867 284.49 82.46C284.49 82.5333 284.49 82.6167 284.49 82.71H280.54C280.56 83.09 280.647 83.4067 280.8 83.66C280.96 83.9067 281.157 84.0933 281.39 84.22C281.63 84.3467 281.884 84.41 282.15 84.41C282.497 84.41 282.787 84.33 283.02 84.17C283.254 84.01 283.424 83.7933 283.53 83.52H284.36C284.227 83.98 283.97 84.3633 283.59 84.67C283.217 84.97 282.737 85.12 282.15 85.12ZM282.15 80.63C281.75 80.63 281.394 80.7533 281.08 81C280.774 81.24 280.597 81.5933 280.55 82.06H283.67C283.65 81.6133 283.497 81.2633 283.21 81.01C282.924 80.7567 282.57 80.63 282.15 80.63ZM285.614 85V80.04H286.374L286.444 80.99C286.597 80.6633 286.83 80.4033 287.144 80.21C287.457 80.0167 287.844 79.92 288.304 79.92V80.8H288.074C287.78 80.8 287.51 80.8533 287.264 80.96C287.017 81.06 286.82 81.2333 286.674 81.48C286.527 81.7267 286.454 82.0667 286.454 82.5V85H285.614ZM289.517 85V80.75H288.767V80.04H289.517V79.18C289.517 78.7 289.637 78.35 289.877 78.13C290.117 77.91 290.467 77.8 290.927 77.8H291.427V78.52H291.057C290.803 78.52 290.623 78.5733 290.517 78.68C290.41 78.78 290.357 78.9533 290.357 79.2V80.04H291.577V80.75H290.357V85H289.517ZM294.641 85.12C294.175 85.12 293.755 85.0133 293.381 84.8C293.008 84.5867 292.711 84.2867 292.491 83.9C292.278 83.5067 292.171 83.0467 292.171 82.52C292.171 81.9933 292.281 81.5367 292.501 81.15C292.721 80.7567 293.018 80.4533 293.391 80.24C293.771 80.0267 294.195 79.92 294.661 79.92C295.128 79.92 295.548 80.0267 295.921 80.24C296.295 80.4533 296.588 80.7567 296.801 81.15C297.021 81.5367 297.131 81.9933 297.131 82.52C297.131 83.0467 297.021 83.5067 296.801 83.9C296.581 84.2867 296.281 84.5867 295.901 84.8C295.528 85.0133 295.108 85.12 294.641 85.12ZM294.641 84.4C294.928 84.4 295.195 84.33 295.441 84.19C295.688 84.05 295.888 83.84 296.041 83.56C296.195 83.28 296.271 82.9333 296.271 82.52C296.271 82.1067 296.195 81.76 296.041 81.48C295.895 81.2 295.698 80.99 295.451 80.85C295.205 80.71 294.941 80.64 294.661 80.64C294.375 80.64 294.108 80.71 293.861 80.85C293.615 80.99 293.415 81.2 293.261 81.48C293.108 81.76 293.031 82.1067 293.031 82.52C293.031 82.9333 293.108 83.28 293.261 83.56C293.415 83.84 293.611 84.05 293.851 84.19C294.098 84.33 294.361 84.4 294.641 84.4ZM298.299 85V80.04H299.059L299.129 80.99C299.283 80.6633 299.516 80.4033 299.829 80.21C300.143 80.0167 300.529 79.92 300.989 79.92V80.8H300.759C300.466 80.8 300.196 80.8533 299.949 80.96C299.703 81.06 299.506 81.2333 299.359 81.48C299.213 81.7267 299.139 82.0667 299.139 82.5V85H298.299ZM301.932 85V80.04H302.692L302.752 80.76C302.912 80.4933 303.126 80.2867 303.392 80.14C303.659 79.9933 303.959 79.92 304.292 79.92C304.686 79.92 305.022 80 305.302 80.16C305.589 80.32 305.809 80.5633 305.962 80.89C306.136 80.59 306.372 80.3533 306.672 80.18C306.979 80.0067 307.309 79.92 307.662 79.92C308.256 79.92 308.729 80.1 309.082 80.46C309.436 80.8133 309.612 81.36 309.612 82.1V85H308.782V82.19C308.782 81.6767 308.679 81.29 308.472 81.03C308.266 80.77 307.969 80.64 307.582 80.64C307.182 80.64 306.849 80.7967 306.582 81.11C306.322 81.4167 306.192 81.8567 306.192 82.43V85H305.352V82.19C305.352 81.6767 305.249 81.29 305.042 81.03C304.836 80.77 304.539 80.64 304.152 80.64C303.759 80.64 303.429 80.7967 303.162 81.11C302.902 81.4167 302.772 81.8567 302.772 82.43V85H301.932ZM311.388 78.94C311.221 78.94 311.081 78.8867 310.968 78.78C310.861 78.6667 310.808 78.5267 310.808 78.36C310.808 78.2 310.861 78.0667 310.968 77.96C311.081 77.8533 311.221 77.8 311.388 77.8C311.548 77.8 311.684 77.8533 311.798 77.96C311.911 78.0667 311.968 78.2 311.968 78.36C311.968 78.5267 311.911 78.6667 311.798 78.78C311.684 78.8867 311.548 78.94 311.388 78.94ZM310.968 85V80.04H311.808V85H310.968ZM313.27 85V80.04H314.03L314.08 80.93C314.24 80.6167 314.47 80.37 314.77 80.19C315.07 80.01 315.41 79.92 315.79 79.92C316.377 79.92 316.843 80.1 317.19 80.46C317.543 80.8133 317.72 81.36 317.72 82.1V85H316.88V82.19C316.88 81.1567 316.453 80.64 315.6 80.64C315.173 80.64 314.817 80.7967 314.53 81.11C314.25 81.4167 314.11 81.8567 314.11 82.43V85H313.27ZM320.953 83.44C320.673 83.44 320.416 83.4033 320.183 83.33L319.683 83.8C319.756 83.8533 319.846 83.9 319.953 83.94C320.066 83.9733 320.226 84.0067 320.433 84.04C320.639 84.0667 320.929 84.0967 321.303 84.13C321.969 84.1767 322.446 84.33 322.733 84.59C323.019 84.85 323.163 85.19 323.163 85.61C323.163 85.8967 323.083 86.17 322.923 86.43C322.769 86.69 322.529 86.9033 322.203 87.07C321.883 87.2367 321.469 87.32 320.963 87.32C320.516 87.32 320.119 87.26 319.773 87.14C319.426 87.0267 319.156 86.85 318.963 86.61C318.769 86.3767 318.673 86.08 318.673 85.72C318.673 85.5333 318.723 85.33 318.823 85.11C318.923 84.8967 319.109 84.6933 319.383 84.5C319.236 84.44 319.109 84.3767 319.003 84.31C318.903 84.2367 318.809 84.1567 318.723 84.07V83.84L319.573 83C319.179 82.6667 318.983 82.2267 318.983 81.68C318.983 81.3533 319.059 81.0567 319.213 80.79C319.366 80.5233 319.589 80.3133 319.883 80.16C320.176 80 320.533 79.92 320.953 79.92C321.239 79.92 321.499 79.96 321.733 80.04H323.563V80.67L322.633 80.71C322.826 80.99 322.923 81.3133 322.923 81.68C322.923 82.0067 322.843 82.3033 322.683 82.57C322.529 82.8367 322.306 83.05 322.013 83.21C321.726 83.3633 321.373 83.44 320.953 83.44ZM320.953 82.75C321.306 82.75 321.586 82.66 321.793 82.48C322.006 82.2933 322.113 82.0267 322.113 81.68C322.113 81.34 322.006 81.08 321.793 80.9C321.586 80.7133 321.306 80.62 320.953 80.62C320.593 80.62 320.306 80.7133 320.093 80.9C319.886 81.08 319.783 81.34 319.783 81.68C319.783 82.0267 319.886 82.2933 320.093 82.48C320.306 82.66 320.593 82.75 320.953 82.75ZM319.493 85.64C319.493 85.9733 319.633 86.22 319.913 86.38C320.193 86.5467 320.543 86.63 320.963 86.63C321.376 86.63 321.706 86.54 321.953 86.36C322.206 86.18 322.333 85.94 322.333 85.64C322.333 85.4267 322.246 85.24 322.073 85.08C321.899 84.9267 321.579 84.8367 321.113 84.81C320.746 84.7833 320.429 84.75 320.163 84.71C319.889 84.8567 319.709 85.0133 319.623 85.18C319.536 85.3533 319.493 85.5067 319.493 85.64Z" fill="#4F4F4F"/>
<path d="M2.5 86.12C1.91333 86.12 1.44667 85.9433 1.1 85.59C0.753333 85.23 0.58 84.68 0.58 83.94V81.04H1.42V83.85C1.42 84.8833 1.84333 85.4 2.69 85.4C3.12333 85.4 3.48 85.2467 3.76 84.94C4.04667 84.6267 4.19 84.1833 4.19 83.61V81.04H5.03V86H4.27L4.21 85.11C4.05667 85.4233 3.82667 85.67 3.52 85.85C3.22 86.03 2.88 86.12 2.5 86.12ZM6.41266 86V81.04H7.17266L7.22266 81.93C7.38266 81.6167 7.61266 81.37 7.91266 81.19C8.21266 81.01 8.55266 80.92 8.93266 80.92C9.51932 80.92 9.98599 81.1 10.3327 81.46C10.686 81.8133 10.8627 82.36 10.8627 83.1V86H10.0227V83.19C10.0227 82.1567 9.59599 81.64 8.74266 81.64C8.31599 81.64 7.95932 81.7967 7.67266 82.11C7.39266 82.4167 7.25266 82.8567 7.25266 83.43V86H6.41266ZM14.3853 86.12C13.892 86.12 13.4586 86.0067 13.0853 85.78C12.7186 85.5533 12.432 85.2433 12.2253 84.85C12.0253 84.4567 11.9253 84.01 11.9253 83.51C11.9253 83.01 12.0286 82.5667 12.2353 82.18C12.442 81.7867 12.7286 81.48 13.0953 81.26C13.462 81.0333 13.8953 80.92 14.3953 80.92C14.802 80.92 15.162 81.0033 15.4753 81.17C15.7886 81.3367 16.032 81.57 16.2053 81.87V78.8H17.0453V86H16.2853L16.2053 85.18C16.0453 85.42 15.8153 85.6367 15.5153 85.83C15.2153 86.0233 14.8386 86.12 14.3853 86.12ZM14.4753 85.39C14.8086 85.39 15.102 85.3133 15.3553 85.16C15.6153 85 15.8153 84.78 15.9553 84.5C16.102 84.22 16.1753 83.8933 16.1753 83.52C16.1753 83.1467 16.102 82.82 15.9553 82.54C15.8153 82.26 15.6153 82.0433 15.3553 81.89C15.102 81.73 14.8086 81.65 14.4753 81.65C14.1486 81.65 13.8553 81.73 13.5953 81.89C13.342 82.0433 13.142 82.26 12.9953 82.54C12.8553 82.82 12.7853 83.1467 12.7853 83.52C12.7853 83.8933 12.8553 84.22 12.9953 84.5C13.142 84.78 13.342 85 13.5953 85.16C13.8553 85.3133 14.1486 85.39 14.4753 85.39ZM20.6446 86.12C20.1713 86.12 19.7513 86.0133 19.3846 85.8C19.0179 85.58 18.7279 85.2767 18.5146 84.89C18.3079 84.5033 18.2046 84.0467 18.2046 83.52C18.2046 83 18.3079 82.5467 18.5146 82.16C18.7213 81.7667 19.0079 81.4633 19.3746 81.25C19.7479 81.03 20.1779 80.92 20.6646 80.92C21.1446 80.92 21.5579 81.03 21.9046 81.25C22.2579 81.4633 22.5279 81.7467 22.7146 82.1C22.9013 82.4533 22.9946 82.8333 22.9946 83.24C22.9946 83.3133 22.9913 83.3867 22.9846 83.46C22.9846 83.5333 22.9846 83.6167 22.9846 83.71H19.0346C19.0546 84.09 19.1413 84.4067 19.2946 84.66C19.4546 84.9067 19.6513 85.0933 19.8846 85.22C20.1246 85.3467 20.3779 85.41 20.6446 85.41C20.9913 85.41 21.2813 85.33 21.5146 85.17C21.7479 85.01 21.9179 84.7933 22.0246 84.52H22.8546C22.7213 84.98 22.4646 85.3633 22.0846 85.67C21.7113 85.97 21.2313 86.12 20.6446 86.12ZM20.6446 81.63C20.2446 81.63 19.8879 81.7533 19.5746 82C19.2679 82.24 19.0913 82.5933 19.0446 83.06H22.1646C22.1446 82.6133 21.9913 82.2633 21.7046 82.01C21.4179 81.7567 21.0646 81.63 20.6446 81.63ZM24.108 86V81.04H24.868L24.938 81.99C25.0913 81.6633 25.3246 81.4033 25.638 81.21C25.9513 81.0167 26.338 80.92 26.798 80.92V81.8H26.568C26.2746 81.8 26.0046 81.8533 25.758 81.96C25.5113 82.06 25.3146 82.2333 25.168 82.48C25.0213 82.7267 24.948 83.0667 24.948 83.5V86H24.108ZM27.7408 88.2V81.04H28.5008L28.5808 81.86C28.7408 81.62 28.9674 81.4033 29.2608 81.21C29.5608 81.0167 29.9408 80.92 30.4008 80.92C30.8941 80.92 31.3241 81.0333 31.6908 81.26C32.0574 81.4867 32.3408 81.7967 32.5408 82.19C32.7474 82.5833 32.8508 83.03 32.8508 83.53C32.8508 84.03 32.7474 84.4767 32.5408 84.87C32.3408 85.2567 32.0541 85.5633 31.6808 85.79C31.3141 86.01 30.8841 86.12 30.3908 86.12C29.9841 86.12 29.6208 86.0367 29.3008 85.87C28.9874 85.7033 28.7474 85.47 28.5808 85.17V88.2H27.7408ZM30.3008 85.39C30.6341 85.39 30.9274 85.3133 31.1808 85.16C31.4341 85 31.6341 84.78 31.7808 84.5C31.9274 84.22 32.0008 83.8933 32.0008 83.52C32.0008 83.1467 31.9274 82.82 31.7808 82.54C31.6341 82.26 31.4341 82.0433 31.1808 81.89C30.9274 81.73 30.6341 81.65 30.3008 81.65C29.9674 81.65 29.6741 81.73 29.4208 81.89C29.1674 82.0433 28.9674 82.26 28.8208 82.54C28.6741 82.82 28.6008 83.1467 28.6008 83.52C28.6008 83.8933 28.6741 84.22 28.8208 84.5C28.9674 84.78 29.1674 85 29.4208 85.16C29.6741 85.3133 29.9674 85.39 30.3008 85.39ZM36.2501 86.12C35.7767 86.12 35.3567 86.0133 34.9901 85.8C34.6234 85.58 34.3334 85.2767 34.1201 84.89C33.9134 84.5033 33.8101 84.0467 33.8101 83.52C33.8101 83 33.9134 82.5467 34.1201 82.16C34.3267 81.7667 34.6134 81.4633 34.9801 81.25C35.3534 81.03 35.7834 80.92 36.2701 80.92C36.7501 80.92 37.1634 81.03 37.5101 81.25C37.8634 81.4633 38.1334 81.7467 38.3201 82.1C38.5067 82.4533 38.6001 82.8333 38.6001 83.24C38.6001 83.3133 38.5967 83.3867 38.5901 83.46C38.5901 83.5333 38.5901 83.6167 38.5901 83.71H34.6401C34.6601 84.09 34.7467 84.4067 34.9001 84.66C35.0601 84.9067 35.2567 85.0933 35.4901 85.22C35.7301 85.3467 35.9834 85.41 36.2501 85.41C36.5967 85.41 36.8867 85.33 37.1201 85.17C37.3534 85.01 37.5234 84.7933 37.6301 84.52H38.4601C38.3267 84.98 38.0701 85.3633 37.6901 85.67C37.3167 85.97 36.8367 86.12 36.2501 86.12ZM36.2501 81.63C35.8501 81.63 35.4934 81.7533 35.1801 82C34.8734 82.24 34.6967 82.5933 34.6501 83.06H37.7701C37.7501 82.6133 37.5967 82.2633 37.3101 82.01C37.0234 81.7567 36.6701 81.63 36.2501 81.63ZM39.7134 86V81.04H40.4734L40.5434 81.99C40.6968 81.6633 40.9301 81.4033 41.2434 81.21C41.5568 81.0167 41.9434 80.92 42.4034 80.92V81.8H42.1734C41.8801 81.8 41.6101 81.8533 41.3634 81.96C41.1168 82.06 40.9201 82.2333 40.7734 82.48C40.6268 82.7267 40.5534 83.0667 40.5534 83.5V86H39.7134ZM43.6163 86V81.75H42.8663V81.04H43.6163V80.18C43.6163 79.7 43.7363 79.35 43.9762 79.13C44.2163 78.91 44.5663 78.8 45.0263 78.8H45.5263V79.52H45.1562C44.9029 79.52 44.7229 79.5733 44.6163 79.68C44.5096 79.78 44.4563 79.9533 44.4563 80.2V81.04H45.6763V81.75H44.4563V86H43.6163ZM48.741 86.12C48.2743 86.12 47.8543 86.0133 47.481 85.8C47.1077 85.5867 46.811 85.2867 46.591 84.9C46.3777 84.5067 46.271 84.0467 46.271 83.52C46.271 82.9933 46.381 82.5367 46.601 82.15C46.821 81.7567 47.1177 81.4533 47.491 81.24C47.871 81.0267 48.2943 80.92 48.761 80.92C49.2277 80.92 49.6477 81.0267 50.021 81.24C50.3943 81.4533 50.6877 81.7567 50.901 82.15C51.121 82.5367 51.231 82.9933 51.231 83.52C51.231 84.0467 51.121 84.5067 50.901 84.9C50.681 85.2867 50.381 85.5867 50.001 85.8C49.6277 86.0133 49.2077 86.12 48.741 86.12ZM48.741 85.4C49.0277 85.4 49.2943 85.33 49.541 85.19C49.7877 85.05 49.9877 84.84 50.141 84.56C50.2943 84.28 50.371 83.9333 50.371 83.52C50.371 83.1067 50.2943 82.76 50.141 82.48C49.9943 82.2 49.7977 81.99 49.551 81.85C49.3043 81.71 49.041 81.64 48.761 81.64C48.4743 81.64 48.2077 81.71 47.961 81.85C47.7143 81.99 47.5143 82.2 47.361 82.48C47.2077 82.76 47.131 83.1067 47.131 83.52C47.131 83.9333 47.2077 84.28 47.361 84.56C47.5143 84.84 47.711 85.05 47.951 85.19C48.1977 85.33 48.461 85.4 48.741 85.4ZM52.399 86V81.04H53.159L53.229 81.99C53.3823 81.6633 53.6157 81.4033 53.929 81.21C54.2423 81.0167 54.629 80.92 55.089 80.92V81.8H54.859C54.5657 81.8 54.2957 81.8533 54.049 81.96C53.8023 82.06 53.6057 82.2333 53.459 82.48C53.3123 82.7267 53.239 83.0667 53.239 83.5V86H52.399ZM56.0318 86V81.04H56.7918L56.8518 81.76C57.0118 81.4933 57.2251 81.2867 57.4918 81.14C57.7585 80.9933 58.0585 80.92 58.3918 80.92C58.7851 80.92 59.1218 81 59.4018 81.16C59.6885 81.32 59.9085 81.5633 60.0618 81.89C60.2351 81.59 60.4718 81.3533 60.7718 81.18C61.0785 81.0067 61.4085 80.92 61.7618 80.92C62.3551 80.92 62.8285 81.1 63.1818 81.46C63.5351 81.8133 63.7118 82.36 63.7118 83.1V86H62.8818V83.19C62.8818 82.6767 62.7785 82.29 62.5718 82.03C62.3651 81.77 62.0685 81.64 61.6818 81.64C61.2818 81.64 60.9485 81.7967 60.6818 82.11C60.4218 82.4167 60.2918 82.8567 60.2918 83.43V86H59.4518V83.19C59.4518 82.6767 59.3485 82.29 59.1418 82.03C58.9351 81.77 58.6385 81.64 58.2518 81.64C57.8585 81.64 57.5285 81.7967 57.2618 82.11C57.0018 82.4167 56.8718 82.8567 56.8718 83.43V86H56.0318ZM65.4871 79.94C65.3204 79.94 65.1804 79.8867 65.0671 79.78C64.9604 79.6667 64.9071 79.5267 64.9071 79.36C64.9071 79.2 64.9604 79.0667 65.0671 78.96C65.1804 78.8533 65.3204 78.8 65.4871 78.8C65.6471 78.8 65.7838 78.8533 65.8971 78.96C66.0104 79.0667 66.0671 79.2 66.0671 79.36C66.0671 79.5267 66.0104 79.6667 65.8971 79.78C65.7838 79.8867 65.6471 79.94 65.4871 79.94ZM65.0671 86V81.04H65.9071V86H65.0671ZM67.3697 86V81.04H68.1297L68.1797 81.93C68.3397 81.6167 68.5697 81.37 68.8697 81.19C69.1697 81.01 69.5097 80.92 69.8897 80.92C70.4764 80.92 70.943 81.1 71.2897 81.46C71.643 81.8133 71.8197 82.36 71.8197 83.1V86H70.9797V83.19C70.9797 82.1567 70.553 81.64 69.6997 81.64C69.273 81.64 68.9164 81.7967 68.6297 82.11C68.3497 82.4167 68.2097 82.8567 68.2097 83.43V86H67.3697ZM75.0523 84.44C74.7723 84.44 74.5157 84.4033 74.2823 84.33L73.7823 84.8C73.8557 84.8533 73.9457 84.9 74.0523 84.94C74.1657 84.9733 74.3257 85.0067 74.5323 85.04C74.739 85.0667 75.029 85.0967 75.4023 85.13C76.069 85.1767 76.5457 85.33 76.8323 85.59C77.119 85.85 77.2623 86.19 77.2623 86.61C77.2623 86.8967 77.1823 87.17 77.0223 87.43C76.869 87.69 76.629 87.9033 76.3023 88.07C75.9823 88.2367 75.569 88.32 75.0623 88.32C74.6157 88.32 74.219 88.26 73.8723 88.14C73.5257 88.0267 73.2557 87.85 73.0623 87.61C72.869 87.3767 72.7723 87.08 72.7723 86.72C72.7723 86.5333 72.8223 86.33 72.9223 86.11C73.0223 85.8967 73.209 85.6933 73.4823 85.5C73.3357 85.44 73.209 85.3767 73.1023 85.31C73.0023 85.2367 72.909 85.1567 72.8223 85.07V84.84L73.6723 84C73.279 83.6667 73.0823 83.2267 73.0823 82.68C73.0823 82.3533 73.159 82.0567 73.3123 81.79C73.4657 81.5233 73.689 81.3133 73.9823 81.16C74.2757 81 74.6323 80.92 75.0523 80.92C75.339 80.92 75.599 80.96 75.8323 81.04H77.6623V81.67L76.7323 81.71C76.9257 81.99 77.0223 82.3133 77.0223 82.68C77.0223 83.0067 76.9423 83.3033 76.7823 83.57C76.629 83.8367 76.4057 84.05 76.1123 84.21C75.8257 84.3633 75.4723 84.44 75.0523 84.44ZM75.0523 83.75C75.4057 83.75 75.6857 83.66 75.8923 83.48C76.1057 83.2933 76.2123 83.0267 76.2123 82.68C76.2123 82.34 76.1057 82.08 75.8923 81.9C75.6857 81.7133 75.4057 81.62 75.0523 81.62C74.6923 81.62 74.4057 81.7133 74.1923 81.9C73.9857 82.08 73.8823 82.34 73.8823 82.68C73.8823 83.0267 73.9857 83.2933 74.1923 83.48C74.4057 83.66 74.6923 83.75 75.0523 83.75ZM73.5923 86.64C73.5923 86.9733 73.7323 87.22 74.0123 87.38C74.2923 87.5467 74.6423 87.63 75.0623 87.63C75.4757 87.63 75.8057 87.54 76.0523 87.36C76.3057 87.18 76.4323 86.94 76.4323 86.64C76.4323 86.4267 76.3457 86.24 76.1723 86.08C75.999 85.9267 75.679 85.8367 75.2123 85.81C74.8457 85.7833 74.529 85.75 74.2623 85.71C73.989 85.8567 73.809 86.0133 73.7223 86.18C73.6357 86.3533 73.5923 86.5067 73.5923 86.64Z" fill="#4F4F4F"/>
<path d="M164 22L160.536 16H167.464L164 22Z" fill="#3D3E3F"/>
<line x1="164" y1="35" x2="164" y2="64" stroke="#333333" stroke-width="2" stroke-linecap="round" stroke-linejoin="round"/>
<path d="M115.524 1.92C115.284 1.92 115.084 1.848 114.924 1.704C114.772 1.552 114.696 1.364 114.696 1.14C114.696 0.916 114.772 0.732 114.924 0.588C115.084 0.436 115.284 0.36 115.524 0.36C115.764 0.36 115.96 0.436 116.112 0.588C116.272 0.732 116.352 0.916 116.352 1.14C116.352 1.364 116.272 1.552 116.112 1.704C115.96 1.848 115.764 1.92 115.524 1.92ZM114.888 9V3.048H116.16V9H114.888ZM117.839 9V3.048H118.967L119.063 4.092C119.247 3.724 119.515 3.436 119.867 3.228C120.227 3.012 120.639 2.904 121.103 2.904C121.823 2.904 122.387 3.128 122.795 3.576C123.211 4.024 123.419 4.692 123.419 5.58V9H122.159V5.712C122.159 4.56 121.687 3.984 120.743 3.984C120.271 3.984 119.879 4.152 119.567 4.488C119.263 4.824 119.111 5.304 119.111 5.928V9H117.839ZM127.629 9.144C127.053 9.144 126.545 9.008 126.105 8.736C125.665 8.464 125.321 8.092 125.073 7.62C124.825 7.148 124.701 6.612 124.701 6.012C124.701 5.412 124.825 4.88 125.073 4.416C125.321 3.944 125.665 3.576 126.105 3.312C126.553 3.04 127.065 2.904 127.641 2.904C128.113 2.904 128.525 2.996 128.877 3.18C129.237 3.364 129.517 3.624 129.717 3.96V0.36H130.989V9H129.849L129.717 8.076C129.525 8.356 129.261 8.604 128.925 8.82C128.589 9.036 128.157 9.144 127.629 9.144ZM127.857 8.04C128.401 8.04 128.845 7.852 129.189 7.476C129.541 7.1 129.717 6.616 129.717 6.024C129.717 5.424 129.541 4.94 129.189 4.572C128.845 4.196 128.401 4.008 127.857 4.008C127.313 4.008 126.865 4.196 126.513 4.572C126.161 4.94 125.985 5.424 125.985 6.024C125.985 6.416 126.065 6.764 126.225 7.068C126.385 7.372 126.605 7.612 126.885 7.788C127.173 7.956 127.497 8.04 127.857 8.04ZM134.789 9.144C134.069 9.144 133.501 8.92 133.085 8.472C132.677 8.024 132.473 7.356 132.473 6.468V3.048H133.745V6.336C133.745 7.488 134.217 8.064 135.161 8.064C135.633 8.064 136.021 7.896 136.325 7.56C136.629 7.224 136.781 6.744 136.781 6.12V3.048H138.053V9H136.925L136.829 7.956C136.645 8.324 136.373 8.616 136.013 8.832C135.661 9.04 135.253 9.144 134.789 9.144ZM142.047 9.144C141.295 9.144 140.675 8.96 140.187 8.592C139.699 8.224 139.419 7.736 139.347 7.128H140.631C140.695 7.4 140.847 7.636 141.087 7.836C141.327 8.028 141.643 8.124 142.035 8.124C142.419 8.124 142.699 8.044 142.875 7.884C143.051 7.724 143.139 7.54 143.139 7.332C143.139 7.028 143.015 6.824 142.767 6.72C142.527 6.608 142.191 6.508 141.759 6.42C141.423 6.348 141.087 6.252 140.751 6.132C140.423 6.012 140.147 5.844 139.923 5.628C139.707 5.404 139.599 5.104 139.599 4.728C139.599 4.208 139.799 3.776 140.199 3.432C140.599 3.08 141.159 2.904 141.879 2.904C142.543 2.904 143.079 3.064 143.487 3.384C143.903 3.704 144.147 4.156 144.219 4.74H142.995C142.955 4.484 142.835 4.284 142.635 4.14C142.443 3.996 142.183 3.924 141.855 3.924C141.535 3.924 141.287 3.992 141.111 4.128C140.935 4.256 140.847 4.424 140.847 4.632C140.847 4.84 140.967 5.004 141.207 5.124C141.455 5.244 141.779 5.352 142.179 5.448C142.579 5.536 142.947 5.64 143.283 5.76C143.627 5.872 143.903 6.04 144.111 6.264C144.319 6.488 144.423 6.816 144.423 7.248C144.431 7.792 144.219 8.244 143.787 8.604C143.363 8.964 142.783 9.144 142.047 9.144ZM148.085 9C147.501 9 147.037 8.86 146.693 8.58C146.349 8.292 146.177 7.784 146.177 7.056V4.116H145.157V3.048H146.177L146.333 1.536H147.449V3.048H149.129V4.116H147.449V7.056C147.449 7.384 147.517 7.612 147.653 7.74C147.797 7.86 148.041 7.92 148.385 7.92H149.069V9H148.085ZM150.441 9V3.048H151.581L151.689 4.176C151.897 3.784 152.185 3.476 152.553 3.252C152.929 3.02 153.381 2.904 153.909 2.904V4.236H153.561C153.209 4.236 152.893 4.296 152.613 4.416C152.341 4.528 152.121 4.724 151.953 5.004C151.793 5.276 151.713 5.656 151.713 6.144V9H150.441ZM155.695 11.64L157.123 8.508H156.775L154.423 3.048H155.803L157.627 7.452L159.535 3.048H160.879L157.039 11.64H155.695ZM166.965 9.144C166.461 9.144 166.045 9.06 165.717 8.892C165.389 8.724 165.145 8.504 164.985 8.232C164.825 7.952 164.745 7.648 164.745 7.32C164.745 6.744 164.969 6.288 165.417 5.952C165.865 5.616 166.505 5.448 167.337 5.448H168.897V5.34C168.897 4.876 168.769 4.528 168.513 4.296C168.265 4.064 167.941 3.948 167.541 3.948C167.189 3.948 166.881 4.036 166.617 4.212C166.361 4.38 166.205 4.632 166.149 4.968H164.877C164.917 4.536 165.061 4.168 165.309 3.864C165.565 3.552 165.885 3.316 166.269 3.156C166.661 2.988 167.089 2.904 167.553 2.904C168.385 2.904 169.029 3.124 169.485 3.564C169.941 3.996 170.169 4.588 170.169 5.34V9H169.065L168.957 7.98C168.789 8.308 168.545 8.584 168.225 8.808C167.905 9.032 167.485 9.144 166.965 9.144ZM167.217 8.112C167.561 8.112 167.849 8.032 168.081 7.872C168.321 7.704 168.505 7.484 168.633 7.212C168.769 6.94 168.853 6.64 168.885 6.312H167.469C166.965 6.312 166.605 6.4 166.389 6.576C166.181 6.752 166.077 6.972 166.077 7.236C166.077 7.508 166.177 7.724 166.377 7.884C166.585 8.036 166.865 8.112 167.217 8.112ZM173.12 9L170.888 3.048H172.22L173.876 7.788L175.532 3.048H176.852L174.632 9H173.12ZM180.377 9.144C179.793 9.144 179.273 9.016 178.817 8.76C178.369 8.496 178.017 8.132 177.761 7.668C177.505 7.204 177.377 6.664 177.377 6.048C177.377 5.424 177.501 4.876 177.749 4.404C178.005 3.932 178.357 3.564 178.805 3.3C179.261 3.036 179.789 2.904 180.389 2.904C180.973 2.904 181.481 3.036 181.913 3.3C182.345 3.556 182.681 3.9 182.921 4.332C183.161 4.764 183.281 5.24 183.281 5.76C183.281 5.84 183.277 5.928 183.269 6.024C183.269 6.112 183.265 6.212 183.257 6.324H178.625C178.665 6.9 178.853 7.34 179.189 7.644C179.533 7.94 179.929 8.088 180.377 8.088C180.737 8.088 181.037 8.008 181.277 7.848C181.525 7.68 181.709 7.456 181.829 7.176H183.101C182.941 7.736 182.621 8.204 182.141 8.58C181.669 8.956 181.081 9.144 180.377 9.144ZM180.377 3.948C179.953 3.948 179.577 4.076 179.249 4.332C178.921 4.58 178.721 4.956 178.649 5.46H182.009C181.985 4.996 181.821 4.628 181.517 4.356C181.213 4.084 180.833 3.948 180.377 3.948ZM184.601 9V3.048H185.741L185.849 4.176C186.057 3.784 186.345 3.476 186.713 3.252C187.089 3.02 187.541 2.904 188.069 2.904V4.236H187.721C187.369 4.236 187.053 4.296 186.773 4.416C186.501 4.528 186.281 4.724 186.113 5.004C185.953 5.276 185.873 5.656 185.873 6.144V9H184.601ZM191.175 9.144C190.671 9.144 190.255 9.06 189.927 8.892C189.599 8.724 189.355 8.504 189.195 8.232C189.035 7.952 188.955 7.648 188.955 7.32C188.955 6.744 189.179 6.288 189.627 5.952C190.075 5.616 190.715 5.448 191.547 5.448H193.107V5.34C193.107 4.876 192.979 4.528 192.723 4.296C192.475 4.064 192.151 3.948 191.751 3.948C191.399 3.948 191.091 4.036 190.827 4.212C190.571 4.38 190.415 4.632 190.359 4.968H189.087C189.127 4.536 189.271 4.168 189.519 3.864C189.775 3.552 190.095 3.316 190.479 3.156C190.871 2.988 191.299 2.904 191.763 2.904C192.595 2.904 193.239 3.124 193.695 3.564C194.151 3.996 194.379 4.588 194.379 5.34V9H193.275L193.167 7.98C192.999 8.308 192.755 8.584 192.435 8.808C192.115 9.032 191.695 9.144 191.175 9.144ZM191.427 8.112C191.771 8.112 192.059 8.032 192.291 7.872C192.531 7.704 192.715 7.484 192.843 7.212C192.979 6.94 193.063 6.64 193.095 6.312H191.679C191.175 6.312 190.815 6.4 190.599 6.576C190.391 6.752 190.287 6.972 190.287 7.236C190.287 7.508 190.387 7.724 190.587 7.884C190.795 8.036 191.075 8.112 191.427 8.112ZM198.299 7.176C197.987 7.176 197.699 7.14 197.435 7.068L196.919 7.572C197.007 7.628 197.115 7.676 197.243 7.716C197.371 7.756 197.551 7.792 197.783 7.824C198.015 7.856 198.331 7.888 198.731 7.92C199.523 7.992 200.095 8.184 200.447 8.496C200.799 8.8 200.975 9.208 200.975 9.72C200.975 10.072 200.879 10.404 200.687 10.716C200.503 11.036 200.211 11.292 199.811 11.484C199.419 11.684 198.915 11.784 198.299 11.784C197.467 11.784 196.791 11.624 196.271 11.304C195.759 10.992 195.503 10.516 195.503 9.876C195.503 9.628 195.567 9.38 195.695 9.132C195.831 8.892 196.043 8.664 196.331 8.448C196.163 8.376 196.015 8.3 195.887 8.22C195.767 8.132 195.659 8.044 195.563 7.956V7.668L196.595 6.612C196.131 6.212 195.899 5.688 195.899 5.04C195.899 4.648 195.991 4.292 196.175 3.972C196.367 3.644 196.643 3.384 197.003 3.192C197.363 3 197.795 2.904 198.299 2.904C198.635 2.904 198.947 2.952 199.235 3.048H201.455V3.888L200.399 3.948C200.591 4.276 200.687 4.64 200.687 5.04C200.687 5.44 200.591 5.8 200.399 6.12C200.215 6.44 199.943 6.696 199.583 6.888C199.231 7.08 198.803 7.176 198.299 7.176ZM198.299 6.18C198.667 6.18 198.963 6.084 199.187 5.892C199.419 5.692 199.535 5.412 199.535 5.052C199.535 4.684 199.419 4.404 199.187 4.212C198.963 4.02 198.667 3.924 198.299 3.924C197.923 3.924 197.619 4.02 197.387 4.212C197.163 4.404 197.051 4.684 197.051 5.052C197.051 5.412 197.163 5.692 197.387 5.892C197.619 6.084 197.923 6.18 198.299 6.18ZM196.703 9.756C196.703 10.1 196.855 10.356 197.159 10.524C197.463 10.7 197.843 10.788 198.299 10.788C198.739 10.788 199.095 10.692 199.367 10.5C199.639 10.316 199.775 10.068 199.775 9.756C199.775 9.524 199.683 9.324 199.499 9.156C199.315 8.996 198.967 8.896 198.455 8.856C198.071 8.832 197.731 8.796 197.435 8.748C197.155 8.9 196.963 9.064 196.859 9.24C196.755 9.416 196.703 9.588 196.703 9.756ZM205.139 9.144C204.555 9.144 204.035 9.016 203.579 8.76C203.131 8.496 202.779 8.132 202.523 7.668C202.267 7.204 202.139 6.664 202.139 6.048C202.139 5.424 202.263 4.876 202.511 4.404C202.767 3.932 203.119 3.564 203.567 3.3C204.023 3.036 204.551 2.904 205.151 2.904C205.735 2.904 206.243 3.036 206.675 3.3C207.107 3.556 207.443 3.9 207.683 4.332C207.923 4.764 208.043 5.24 208.043 5.76C208.043 5.84 208.039 5.928 208.031 6.024C208.031 6.112 208.027 6.212 208.019 6.324H203.387C203.427 6.9 203.615 7.34 203.951 7.644C204.295 7.94 204.691 8.088 205.139 8.088C205.499 8.088 205.799 8.008 206.039 7.848C206.287 7.68 206.471 7.456 206.591 7.176H207.863C207.703 7.736 207.383 8.204 206.903 8.58C206.431 8.956 205.843 9.144 205.139 9.144ZM205.139 3.948C204.715 3.948 204.339 4.076 204.011 4.332C203.683 4.58 203.483 4.956 203.411 5.46H206.771C206.747 4.996 206.583 4.628 206.279 4.356C205.975 4.084 205.595 3.948 205.139 3.948Z" fill="#4F4F4F"/>
<defs>
<linearGradient id="paint0_linear" x1="324" y1="49" x2="0" y2="49" gradientUnits="userSpaceOnUse">
<stop stop-color="#93CE8F"/>
<stop offset="0.5" stop-color="#FFEB84"/>
<stop offset="1" stop-color="#FBB178"/>
</linearGradient>
</defs>
</svg>
