<svg width="10" height="10" viewBox="0 0 10 10" fill="none" xmlns="http://www.w3.org/2000/svg">
<path d="M4.04002 4.43C4.06502 4.265 4.12003 4.12 4.19003 3.995C4.26003 3.87 4.36003 3.765 4.48503 3.685C4.60503 3.61 4.75503 3.575 4.94003 3.57C5.05503 3.575 5.16003 3.595 5.25503 3.635C5.35503 3.68 5.44503 3.74 5.51503 3.815C5.58503 3.89 5.64003 3.98 5.68503 4.08C5.73003 4.18 5.75004 4.29 5.75503 4.4H6.65004C6.64004 4.165 6.59504 3.95 6.51004 3.755C6.42504 3.56 6.31004 3.39 6.16004 3.25C6.01004 3.11 5.83004 3 5.62003 2.92C5.41003 2.84 5.18003 2.805 4.92503 2.805C4.60003 2.805 4.31503 2.86 4.07502 2.975C3.83502 3.09 3.63502 3.24 3.47502 3.435C3.31502 3.63 3.19502 3.855 3.12002 4.115C3.04502 4.375 3.00002 4.645 3.00002 4.935V5.07C3.00002 5.36 3.04002 5.63 3.11502 5.89C3.19002 6.15 3.31002 6.375 3.47002 6.565C3.63002 6.755 3.83002 6.91 4.07002 7.02C4.31003 7.13 4.59503 7.19 4.92003 7.19C5.15503 7.19 5.37503 7.15 5.58003 7.075C5.78504 7 5.96504 6.895 6.12004 6.76C6.27504 6.625 6.40004 6.47 6.49004 6.29C6.58004 6.11 6.63504 5.92 6.64004 5.715H5.74503C5.74003 5.82 5.71503 5.915 5.67003 6.005C5.62503 6.095 5.56503 6.17 5.49003 6.235C5.41503 6.3 5.33003 6.35 5.23003 6.385C5.13503 6.42 5.03503 6.43 4.93003 6.435C4.75003 6.43 4.60003 6.395 4.48503 6.32C4.36003 6.24 4.26003 6.135 4.19003 6.01C4.12003 5.885 4.06502 5.735 4.04002 5.57C4.01502 5.405 4.00002 5.235 4.00002 5.07V4.935C4.00002 4.76 4.01502 4.595 4.04002 4.43ZM5.00003 0C2.24001 0 0 2.24 0 5C0 7.76 2.24001 10 5.00003 10C7.76005 10 10.0001 7.76 10.0001 5C10.0001 2.24 7.76005 0 5.00003 0ZM5.00003 9C2.79502 9 1.00001 7.205 1.00001 5C1.00001 2.795 2.79502 1 5.00003 1C7.20504 1 9.00005 2.795 9.00005 5C9.00005 7.205 7.20504 9 5.00003 9Z" fill="#25385A"/>
</svg>
