<svg width="20" height="20" viewBox="0 0 20 20" fill="none" xmlns="http://www.w3.org/2000/svg">
<path d="M18.5196 0H1.47657C0.660158 0 0 0.644531 0 1.44141V18.5547C0 19.3516 0.660158 20 1.47657 20H18.5196C19.336 20 20.0001 19.3516 20.0001 18.5586V1.44141C20.0001 0.644531 19.336 0 18.5196 0ZM5.93361 17.043H2.96485V7.49609H5.93361V17.043ZM4.44923 6.19531C3.4961 6.19531 2.72657 5.42578 2.72657 4.47656C2.72657 3.52734 3.4961 2.75781 4.44923 2.75781C5.39845 2.75781 6.16799 3.52734 6.16799 4.47656C6.16799 5.42187 5.39845 6.19531 4.44923 6.19531ZM17.043 17.043H14.0782V12.4023C14.0782 11.2969 14.0586 9.87109 12.5352 9.87109C10.9922 9.87109 10.7578 11.0781 10.7578 12.3242V17.043H7.7969V7.49609H10.6407V8.80078H10.6797C11.0743 8.05078 12.043 7.25781 13.4844 7.25781C16.4883 7.25781 17.043 9.23438 17.043 11.8047V17.043V17.043Z" fill="#ABD4B7"/>
</svg>
