<svg width="20" height="20" viewBox="0 0 20 20" fill="none" xmlns="http://www.w3.org/2000/svg">
<path d="M10.0059 1.80113C12.6793 1.80113 12.9959 1.81285 14.0473 1.85974C15.0244 1.90272 15.5521 2.06681 15.9038 2.20356C16.369 2.38328 16.7051 2.60207 17.053 2.9498C17.4047 3.30143 17.6197 3.63352 17.7995 4.09846C17.9363 4.45009 18.1004 4.98144 18.1434 5.95429C18.1903 7.00918 18.2021 7.32565 18.2021 9.99414C18.2021 12.6665 18.1903 12.983 18.1434 14.034C18.1004 15.0107 17.9363 15.5382 17.7995 15.8898C17.6197 16.3548 17.4008 16.6908 17.053 17.0385C16.7012 17.3901 16.369 17.605 15.9038 17.7847C15.5521 17.9215 15.0205 18.0856 14.0473 18.1285C12.992 18.1754 12.6754 18.1871 10.0059 18.1871C7.33242 18.1871 7.01583 18.1754 5.96443 18.1285C4.9873 18.0856 4.45964 17.9215 4.10788 17.7847C3.64276 17.605 3.30662 17.3862 2.95876 17.0385C2.607 16.6869 2.39203 16.3548 2.21223 15.8898C2.07543 15.5382 1.91128 15.0068 1.86828 14.034C1.82138 12.9791 1.80965 12.6626 1.80965 9.99414C1.80965 7.32174 1.82138 7.00527 1.86828 5.95429C1.91128 4.97753 2.07543 4.45009 2.21223 4.09846C2.39203 3.63352 2.6109 3.29752 2.95876 2.9498C3.31053 2.59816 3.64276 2.38328 4.10788 2.20356C4.45964 2.06681 4.99121 1.90272 5.96443 1.85974C7.01583 1.81285 7.33242 1.80113 10.0059 1.80113ZM10.0059 0C7.28943 0 6.94938 0.011721 5.88235 0.0586052C4.81923 0.105489 4.08833 0.277398 3.45515 0.52354C2.79461 0.781403 2.23569 1.12131 1.68067 1.68002C1.12175 2.23481 0.781708 2.79351 0.523744 3.44989C0.277506 4.08674 0.105531 4.81344 0.0586281 5.87615C0.0117256 6.94667 0 7.28658 0 10.002C0 12.7173 0.0117256 13.0572 0.0586281 14.1239C0.105531 15.1866 0.277506 15.9172 0.523744 16.5501C0.781708 17.2104 1.12175 17.7691 1.68067 18.3239C2.23569 18.8787 2.79461 19.2225 3.45124 19.4765C4.08833 19.7226 4.81532 19.8945 5.87844 19.9414C6.94548 19.9883 7.28552 20 10.002 20C12.7184 20 13.0584 19.9883 14.1255 19.9414C15.1886 19.8945 15.9195 19.7226 16.5527 19.4765C17.2093 19.2225 17.7682 18.8787 18.3232 18.3239C18.8782 17.7691 19.2222 17.2104 19.4763 16.554C19.7225 15.9172 19.8945 15.1905 19.9414 14.1278C19.9883 13.0611 20 12.7212 20 10.0059C20 7.29049 19.9883 6.95058 19.9414 5.88396C19.8945 4.82125 19.7225 4.09064 19.4763 3.45771C19.23 2.79351 18.89 2.23481 18.3311 1.68002C17.776 1.12522 17.2171 0.781403 16.5605 0.527447C15.9234 0.281305 15.1964 0.109396 14.1333 0.0625122C13.0623 0.011721 12.7223 0 10.0059 0Z" fill="#ABD4B7"/>
<path d="M10.0069 4.86426C7.16932 4.86426 4.86719 7.16549 4.86719 10.002C4.86719 12.8385 7.16932 15.1397 10.0069 15.1397C12.8445 15.1397 15.1467 12.8385 15.1467 10.002C15.1467 7.16549 12.8445 4.86426 10.0069 4.86426ZM10.0069 13.3347C8.166 13.3347 6.67294 11.8422 6.67294 10.002C6.67294 8.16178 8.166 6.6693 10.0069 6.6693C11.8479 6.6693 13.3409 8.16178 13.3409 10.002C13.3409 11.8422 11.8479 13.3347 10.0069 13.3347Z" fill="#ABD4B7"/>
<path d="M16.5483 4.66186C16.5483 5.32605 16.0089 5.86131 15.3484 5.86131C14.6839 5.86131 14.1484 5.32214 14.1484 4.66186C14.1484 3.99766 14.6878 3.4624 15.3484 3.4624C16.0089 3.4624 16.5483 4.00157 16.5483 4.66186Z" fill="#ABD4B7"/>
</svg>
