<svg width="26" height="26" viewBox="0 0 26 26" fill="none" xmlns="http://www.w3.org/2000/svg">
<path d="M13.0076 2.34147C16.4831 2.34147 16.8947 2.35671 18.2615 2.41766C19.5318 2.47353 20.2177 2.68685 20.675 2.86462C21.2797 3.09826 21.7166 3.38269 22.1688 3.83473C22.6261 4.29185 22.9056 4.72358 23.1393 5.32799C23.3172 5.78511 23.5306 6.47587 23.5865 7.74057C23.6474 9.11194 23.6627 9.52334 23.6627 12.9924C23.6627 16.4665 23.6474 16.8779 23.5865 18.2442C23.5306 19.514 23.3172 20.1996 23.1393 20.6568C22.9056 21.2612 22.6211 21.698 22.1688 22.15C21.7115 22.6072 21.2797 22.8865 20.675 23.1201C20.2177 23.2979 19.5267 23.5112 18.2615 23.5671C16.8896 23.6281 16.478 23.6433 13.0076 23.6433C9.53215 23.6433 9.12058 23.6281 7.75376 23.5671C6.48349 23.5112 5.79754 23.2979 5.34024 23.1201C4.73559 22.8865 4.29861 22.6021 3.84639 22.15C3.3891 21.6929 3.10963 21.2612 2.8759 20.6568C2.69807 20.1996 2.48466 19.5089 2.42877 18.2442C2.36779 16.8728 2.35255 16.4614 2.35255 12.9924C2.35255 9.51827 2.36779 9.10686 2.42877 7.74057C2.48466 6.47079 2.69807 5.78511 2.8759 5.32799C3.10963 4.72358 3.39418 4.28677 3.84639 3.83473C4.30369 3.37761 4.73559 3.09826 5.34024 2.86462C5.79754 2.68685 6.48857 2.47353 7.75376 2.41766C9.12058 2.35671 9.53215 2.34147 13.0076 2.34147ZM13.0076 0C9.47626 0 9.0342 0.0152373 7.64706 0.0761868C6.265 0.137136 5.31483 0.360617 4.49169 0.680602C3.63299 1.01582 2.90639 1.45771 2.18487 2.18402C1.45828 2.90525 1.01622 3.63157 0.680868 4.48486C0.360758 5.31276 0.13719 6.25747 0.0762165 7.63899C0.0152433 9.03067 0 9.47255 0 13.0025C0 16.5325 0.0152433 16.9744 0.0762165 18.361C0.13719 19.7425 0.360758 20.6923 0.680868 21.5151C1.01622 22.3735 1.45828 23.0998 2.18487 23.8211C2.90639 24.5423 3.63299 24.9893 4.48661 25.3194C5.31483 25.6394 6.25992 25.8629 7.64198 25.9238C9.02912 25.9848 9.47117 26 13.0025 26C16.5339 26 16.976 25.9848 18.3631 25.9238C19.7452 25.8629 20.6953 25.6394 21.5185 25.3194C22.3721 24.9893 23.0987 24.5423 23.8202 23.8211C24.5417 23.0998 24.9889 22.3735 25.3191 21.5202C25.6392 20.6923 25.8628 19.7476 25.9238 18.3661C25.9848 16.9795 26 16.5376 26 13.0076C26 9.47763 25.9848 9.03575 25.9238 7.64915C25.8628 6.26763 25.6392 5.31784 25.3191 4.49502C24.999 3.63157 24.557 2.90525 23.8304 2.18402C23.1089 1.46279 22.3823 1.01582 21.5286 0.685681C20.7004 0.365696 19.7553 0.142215 18.3733 0.0812659C16.981 0.0152374 16.539 0 13.0076 0Z" fill="#303F67"/>
<path d="M13.0097 6.32324C9.32081 6.32324 6.32803 9.31484 6.32803 13.0023C6.32803 16.6897 9.32081 19.6813 13.0097 19.6813C16.6986 19.6813 19.6914 16.6897 19.6914 13.0023C19.6914 9.31484 16.6986 6.32324 13.0097 6.32324ZM13.0097 17.3348C10.6165 17.3348 8.67551 15.3946 8.67551 13.0023C8.67551 10.61 10.6165 8.6698 13.0097 8.6698C15.4029 8.6698 17.3439 10.61 17.3439 13.0023C17.3439 15.3946 15.4029 17.3348 13.0097 17.3348Z" fill="#303F67"/>
<path d="M21.513 6.06027C21.513 6.92372 20.8118 7.61956 19.9531 7.61956C19.0893 7.61956 18.3932 6.91864 18.3932 6.06027C18.3932 5.19682 19.0944 4.50098 19.9531 4.50098C20.8118 4.50098 21.513 5.2019 21.513 6.06027Z" fill="#303F67"/>
</svg>
