<svg width="25" height="26" viewBox="0 0 25 26" fill="none" xmlns="http://www.w3.org/2000/svg">
<path d="M22.9811 0H1.83228C0.819194 0 0 0.837888 0 1.87382V24.121C0 25.157 0.819194 25.9999 1.83228 25.9999H22.9811C23.9941 25.9999 24.8182 25.157 24.8182 24.1261V1.87382C24.8182 0.837888 23.9941 0 22.9811 0ZM7.36305 22.1558H3.6791V9.74489H7.36305V22.1558ZM5.52108 8.05388C4.33833 8.05388 3.38342 7.05349 3.38342 5.81951C3.38342 4.58553 4.33833 3.58514 5.52108 3.58514C6.69897 3.58514 7.65389 4.58553 7.65389 5.81951C7.65389 7.04842 6.69897 8.05388 5.52108 8.05388ZM21.1488 22.1558H17.4697V16.123C17.4697 14.6859 17.4454 12.8324 15.555 12.8324C13.6403 12.8324 13.3495 14.4015 13.3495 16.0214V22.1558H9.67521V9.74489H13.204V11.441H13.2525C13.7421 10.466 14.9442 9.43513 16.7329 9.43513C20.4605 9.43513 21.1488 12.0047 21.1488 15.346V22.1558Z" fill="#303F67"/>
</svg>
