<svg width="26" height="26" viewBox="0 0 26 26" fill="none" xmlns="http://www.w3.org/2000/svg">
<path d="M8.17934 26C17.9882 26 23.3548 15.996 23.3548 7.32319C23.3548 7.04195 23.3497 6.75446 23.3396 6.47322C24.3835 5.54405 25.2845 4.39315 26 3.07459C25.0277 3.60698 23.9954 3.95467 22.9384 4.10581C24.0514 3.28473 24.8847 1.99487 25.284 0.475315C24.2369 1.23901 23.0919 1.77773 21.8979 2.06838C21.0934 1.01635 20.0297 0.319787 18.8713 0.0863747C17.7129 -0.147037 16.5243 0.0957069 15.4892 0.777076C14.4541 1.45845 13.6303 2.54049 13.145 3.85592C12.6597 5.17134 12.54 6.64688 12.8045 8.05441C10.6844 7.92347 8.61026 7.24565 6.71665 6.06488C4.82303 4.88412 3.15217 3.22677 1.81238 1.20029C1.13143 2.6452 0.923061 4.35501 1.22962 5.98221C1.53617 7.60941 2.33465 9.03191 3.46277 9.96059C2.61585 9.9275 1.78747 9.64686 1.04609 9.14187V9.22312C1.04533 10.7394 1.47127 12.2093 2.2515 13.3828C3.03173 14.5564 4.1181 15.3612 5.32594 15.6604C4.54139 15.9246 3.71798 15.9631 2.91941 15.7729C3.26024 17.0769 3.92337 18.2175 4.81625 19.0354C5.70913 19.8533 6.78721 20.3077 7.90004 20.3352C6.01079 22.1616 3.67702 23.1523 1.27461 23.1476C0.848561 23.1468 0.422932 23.1147 0 23.0514C2.44059 24.9784 5.27966 26.0019 8.17934 26Z" fill="#303F67"/>
</svg>
