<?xml version="1.0" encoding="UTF-8"?>
<svg width="500px" height="500px" viewBox="0 0 500 500" version="1.1" xmlns="http://www.w3.org/2000/svg" xmlns:xlink="http://www.w3.org/1999/xlink">
    <!-- Generator: Sketch 57.1 (83088) - https://sketch.com -->
    <title>Logo Simplified</title>
    <desc>Created with Sketch.</desc>
    <g id="Logo-Simplified" stroke="none" stroke-width="1" fill="none" fill-rule="evenodd">
        <path d="M25,385.956522 L25,80.3926737 L78.5277778,80.3926737 L83.6527778,123.516604 C92.7639344,107.90977 104.817055,95.5887705 119.8125,86.5532352 C134.807945,77.5176999 152.175827,73 171.916667,73 C216.713187,73 247.842505,92.0975495 265.305556,130.293221 C275.555556,112.632857 289.317043,98.6690574 306.590278,88.4014036 C323.863512,78.1337499 342.560085,73 362.680556,73 C397.986288,73 425.698973,84.4995997 445.819444,107.499144 C465.939915,130.498689 476,164.792138 476,210.38052 L476,309.044185 C474.079516,329.385923 464.019331,339.556792 445.819444,339.556792 C427.619558,339.556792 417.559373,329.385923 415.638889,309.044185 L415.638889,217.157138 C415.638889,158.015452 394.759468,128.445053 353,128.445053 C331.740634,128.445053 314.372753,137.069753 300.895833,154.319411 C287.418914,171.569069 280.680556,185.122058 280.680556,217.157138 L280.680556,385.956522 C280.680556,413.318841 270.62037,427 250.5,427 C230.37963,427 220.319444,413.318841 220.319444,385.956522 L220.319444,217.157138 C220.319444,158.015452 199.250211,128.445053 157.111111,128.445053 C136.231377,128.445053 119.053308,137.069753 105.576389,154.319411 C92.0994697,171.569069 85.3611111,196.211069 85.3611111,228.246149 L85.3611111,385.956522 C84.2222222,413.318841 74.206012,427 55.3124806,427 C36.4189491,427 26.3147889,413.318841 25,385.956522 Z" id="m" fill="#26385A" fill-rule="nonzero"></path>
        <circle id="Oval" stroke="#ABD4B7" fill="#ABD4B7" cx="446" cy="396" r="30.5"></circle>
    </g>
</svg>